<svg xmlns="http://www.w3.org/2000/svg" xmlns:xlink="http://www.w3.org/1999/xlink" zoomAndPan="magnify" preserveAspectRatio="xMidYMid meet" version="1.0" viewBox="15.55 145.78 343.23 86.03"><defs><g/></defs><g fill="#ffffff" fill-opacity="1"><g transform="translate(13.045968, 211.948194)"><g><path d="M 27.484375 0.890625 C 23.191406 0.890625 19.367188 0.359375 16.015625 -0.703125 C 12.660156 -1.765625 9.863281 -3.15625 7.625 -4.875 C 5.394531 -6.601562 3.6875 -8.5 2.5 -10.5625 L 9.25 -18.796875 L 10.3125 -18.796875 C 12.175781 -16.023438 14.539062 -13.816406 17.40625 -12.171875 C 20.28125 -10.535156 23.640625 -9.71875 27.484375 -9.71875 C 30.765625 -9.71875 33.238281 -10.410156 34.90625 -11.796875 C 36.570312 -13.179688 37.40625 -15.085938 37.40625 -17.515625 C 37.40625 -18.984375 37.132812 -20.210938 36.59375 -21.203125 C 36.0625 -22.191406 35.171875 -23.039062 33.921875 -23.75 C 32.679688 -24.457031 31.003906 -25.066406 28.890625 -25.578125 L 20.90625 -27.40625 C 15.34375 -28.675781 11.195312 -30.785156 8.46875 -33.734375 C 5.738281 -36.691406 4.375 -40.535156 4.375 -45.265625 C 4.375 -48.765625 5.25 -51.84375 7 -54.5 C 8.75 -57.164062 11.300781 -59.234375 14.65625 -60.703125 C 18.007812 -62.171875 22.019531 -62.90625 26.6875 -62.90625 C 31.457031 -62.90625 35.546875 -62.273438 38.953125 -61.015625 C 42.367188 -59.753906 45.25 -57.828125 47.59375 -55.234375 L 41.53125 -46.921875 L 40.46875 -46.921875 C 38.71875 -48.753906 36.707031 -50.128906 34.4375 -51.046875 C 32.175781 -51.972656 29.59375 -52.4375 26.6875 -52.4375 C 23.320312 -52.4375 20.757812 -51.84375 19 -50.65625 C 17.25 -49.46875 16.375 -47.828125 16.375 -45.734375 C 16.375 -43.773438 16.988281 -42.21875 18.21875 -41.0625 C 19.445312 -39.90625 21.578125 -39 24.609375 -38.34375 L 32.75 -36.65625 C 38.769531 -35.375 43.132812 -33.210938 45.84375 -30.171875 C 48.5625 -27.140625 49.921875 -23.175781 49.921875 -18.28125 C 49.921875 -14.40625 49.085938 -11.03125 47.421875 -8.15625 C 45.753906 -5.289062 43.238281 -3.066406 39.875 -1.484375 C 36.507812 0.0976562 32.378906 0.890625 27.484375 0.890625 Z M 27.484375 0.890625 "/></g></g></g><g fill="#ffffff" fill-opacity="1"><g transform="translate(66.304658, 211.948194)"><g><path d="M 46.234375 -20.75 L 16.15625 -20.75 C 16.5 -16.675781 17.660156 -13.710938 19.640625 -11.859375 C 21.617188 -10.003906 24.320312 -9.078125 27.75 -9.078125 C 30.425781 -9.078125 32.597656 -9.578125 34.265625 -10.578125 C 35.941406 -11.585938 37.289062 -13.109375 38.3125 -15.140625 L 39.203125 -15.140625 L 47 -10.140625 C 45.46875 -6.859375 43.160156 -4.195312 40.078125 -2.15625 C 37.003906 -0.125 32.894531 0.890625 27.75 0.890625 C 22.90625 0.890625 18.722656 -0.0234375 15.203125 -1.859375 C 11.679688 -3.703125 8.96875 -6.441406 7.0625 -10.078125 C 5.15625 -13.710938 4.203125 -18.144531 4.203125 -23.375 C 4.203125 -28.6875 5.203125 -33.164062 7.203125 -36.8125 C 9.210938 -40.46875 11.925781 -43.191406 15.34375 -44.984375 C 18.769531 -46.773438 22.617188 -47.671875 26.890625 -47.671875 C 33.503906 -47.671875 38.570312 -45.914062 42.09375 -42.40625 C 45.613281 -38.90625 47.375 -33.765625 47.375 -26.984375 C 47.375 -24.515625 47.289062 -22.601562 47.125 -21.25 Z M 36.140625 -28.34375 C 36.023438 -31.90625 35.195312 -34.5 33.65625 -36.125 C 32.113281 -37.75 29.859375 -38.5625 26.890625 -38.5625 C 20.953125 -38.5625 17.460938 -35.15625 16.421875 -28.34375 Z M 36.140625 -28.34375 "/></g></g></g><g fill="#ffffff" fill-opacity="1"><g transform="translate(117.146476, 211.948194)"><g><path d="M 32.28125 -11.15625 L 35.328125 -2.453125 C 34.054688 -1.410156 32.457031 -0.59375 30.53125 0 C 28.613281 0.59375 26.441406 0.890625 24.015625 0.890625 C 18.953125 0.890625 15.101562 -0.484375 12.46875 -3.234375 C 9.84375 -5.992188 8.53125 -10.003906 8.53125 -15.265625 L 8.53125 -37.5 L 1.40625 -37.5 L 1.40625 -46.828125 L 8.53125 -46.828125 L 8.53125 -55.953125 L 20.28125 -57.859375 L 20.28125 -46.828125 L 33.546875 -46.828125 L 33.546875 -37.5 L 20.28125 -37.5 L 20.28125 -16.125 C 20.28125 -13.800781 20.757812 -12.109375 21.71875 -11.046875 C 22.675781 -9.984375 24.078125 -9.453125 25.921875 -9.453125 C 28.015625 -9.453125 29.835938 -10.019531 31.390625 -11.15625 Z M 32.28125 -11.15625 "/></g></g></g><g fill="#ffffff" fill-opacity="1"><g transform="translate(153.486328, 211.948194)"><g><path d="M 32.28125 -11.15625 L 35.328125 -2.453125 C 34.054688 -1.410156 32.457031 -0.59375 30.53125 0 C 28.613281 0.59375 26.441406 0.890625 24.015625 0.890625 C 18.953125 0.890625 15.101562 -0.484375 12.46875 -3.234375 C 9.84375 -5.992188 8.53125 -10.003906 8.53125 -15.265625 L 8.53125 -37.5 L 1.40625 -37.5 L 1.40625 -46.828125 L 8.53125 -46.828125 L 8.53125 -55.953125 L 20.28125 -57.859375 L 20.28125 -46.828125 L 33.546875 -46.828125 L 33.546875 -37.5 L 20.28125 -37.5 L 20.28125 -16.125 C 20.28125 -13.800781 20.757812 -12.109375 21.71875 -11.046875 C 22.675781 -9.984375 24.078125 -9.453125 25.921875 -9.453125 C 28.015625 -9.453125 29.835938 -10.019531 31.390625 -11.15625 Z M 32.28125 -11.15625 "/></g></g></g><g fill="#ffffff" fill-opacity="1"><g transform="translate(189.826179, 211.948194)"><g><path d="M 12.59375 -52.390625 C 10.476562 -52.390625 8.753906 -53.03125 7.421875 -54.3125 C 6.097656 -55.601562 5.4375 -57.265625 5.4375 -59.296875 C 5.4375 -61.304688 6.097656 -62.953125 7.421875 -64.234375 C 8.753906 -65.523438 10.476562 -66.171875 12.59375 -66.171875 C 14.007812 -66.171875 15.269531 -65.875 16.375 -65.28125 C 17.476562 -64.6875 18.332031 -63.875 18.9375 -62.84375 C 19.550781 -61.8125 19.859375 -60.628906 19.859375 -59.296875 C 19.859375 -57.972656 19.550781 -56.785156 18.9375 -55.734375 C 18.332031 -54.691406 17.476562 -53.875 16.375 -53.28125 C 15.269531 -52.6875 14.007812 -52.390625 12.59375 -52.390625 Z M 6.75 0 L 6.75 -46.78125 L 18.5 -46.78125 L 18.5 0 Z M 6.75 0 "/></g></g></g><g fill="#ffffff" fill-opacity="1"><g transform="translate(215.013807, 211.948194)"><g><path d="M 6.75 0 L 6.75 -46.78125 L 18.03125 -46.78125 L 18.03125 -39.921875 L 18.921875 -39.703125 C 21.828125 -45.015625 26.550781 -47.671875 33.09375 -47.671875 C 38.488281 -47.671875 42.453125 -46.203125 44.984375 -43.265625 C 47.515625 -40.328125 48.78125 -36.046875 48.78125 -30.421875 L 48.78125 0 L 37.03125 0 L 37.03125 -28.96875 C 37.03125 -32.082031 36.40625 -34.320312 35.15625 -35.6875 C 33.914062 -37.0625 31.925781 -37.75 29.1875 -37.75 C 25.820312 -37.75 23.195312 -36.660156 21.3125 -34.484375 C 19.4375 -32.304688 18.5 -28.882812 18.5 -24.21875 L 18.5 0 Z M 6.75 0 "/></g></g></g><g fill="#ffffff" fill-opacity="1"><g transform="translate(269.79902, 211.948194)"><g><path d="M 24.265625 19.859375 C 16.546875 19.859375 10.847656 18.722656 7.171875 16.453125 C 3.492188 14.191406 1.65625 11.039062 1.65625 7 C 1.65625 4.539062 2.4375 2.523438 4 0.953125 C 5.570312 -0.617188 7.832031 -1.671875 10.78125 -2.203125 L 10.78125 -3.09375 C 9.195312 -4.050781 8.054688 -5.117188 7.359375 -6.296875 C 6.671875 -7.472656 6.328125 -8.835938 6.328125 -10.390625 C 6.328125 -14.148438 8.769531 -16.679688 13.65625 -17.984375 L 13.65625 -18.875 C 11.144531 -20.320312 9.25 -22.113281 7.96875 -24.25 C 6.695312 -26.382812 6.0625 -28.960938 6.0625 -31.984375 C 6.0625 -35.097656 6.773438 -37.832031 8.203125 -40.1875 C 9.628906 -42.550781 11.722656 -44.390625 14.484375 -45.703125 C 17.242188 -47.015625 20.546875 -47.671875 24.390625 -47.671875 C 28.296875 -47.671875 31.40625 -46.992188 33.71875 -45.640625 C 35.164062 -47.734375 36 -50.148438 36.21875 -52.890625 L 37.109375 -53.453125 L 45.5625 -51.375 C 45.300781 -49.132812 44.644531 -47.257812 43.59375 -45.75 C 42.550781 -44.238281 40.929688 -42.890625 38.734375 -41.703125 L 38.734375 -40.765625 C 41.359375 -38.441406 42.671875 -35.203125 42.671875 -31.046875 C 42.671875 -28.160156 41.945312 -25.570312 40.5 -23.28125 C 39.0625 -21 36.960938 -19.191406 34.203125 -17.859375 C 31.453125 -16.523438 28.179688 -15.859375 24.390625 -15.859375 L 22.609375 -15.90625 C 21.472656 -15.957031 20.679688 -15.984375 20.234375 -15.984375 C 19.160156 -15.984375 18.316406 -15.691406 17.703125 -15.109375 C 17.097656 -14.535156 16.796875 -13.796875 16.796875 -12.890625 C 16.796875 -11.898438 17.191406 -11.128906 17.984375 -10.578125 C 18.773438 -10.023438 19.9375 -9.722656 21.46875 -9.671875 L 31.9375 -9.296875 C 42.289062 -8.984375 47.46875 -4.523438 47.46875 4.078125 C 47.46875 7.097656 46.695312 9.785156 45.15625 12.140625 C 43.613281 14.503906 41.117188 16.378906 37.671875 17.765625 C 34.222656 19.160156 29.753906 19.859375 24.265625 19.859375 Z M 24.390625 -24.09375 C 26.648438 -24.09375 28.414062 -24.753906 29.6875 -26.078125 C 30.96875 -27.410156 31.609375 -29.304688 31.609375 -31.765625 C 31.609375 -34.234375 30.96875 -36.125 29.6875 -37.4375 C 28.414062 -38.75 26.648438 -39.40625 24.390625 -39.40625 C 22.097656 -39.40625 20.328125 -38.75 19.078125 -37.4375 C 17.835938 -36.125 17.21875 -34.234375 17.21875 -31.765625 C 17.21875 -29.285156 17.835938 -27.382812 19.078125 -26.0625 C 20.328125 -24.75 22.097656 -24.09375 24.390625 -24.09375 Z M 24.265625 11.328125 C 28.273438 11.328125 31.191406 10.757812 33.015625 9.625 C 34.847656 8.5 35.765625 7.03125 35.765625 5.21875 C 35.765625 3.75 35.296875 2.664062 34.359375 1.96875 C 33.421875 1.28125 31.9375 0.90625 29.90625 0.84375 L 20.65625 0.421875 C 20.34375 0.421875 20.050781 0.40625 19.78125 0.375 C 19.519531 0.351562 19.257812 0.34375 19 0.34375 C 17.019531 0.34375 15.515625 0.765625 14.484375 1.609375 C 13.453125 2.460938 12.9375 3.632812 12.9375 5.125 C 12.9375 7.113281 13.882812 8.644531 15.78125 9.71875 C 17.675781 10.789062 20.503906 11.328125 24.265625 11.328125 Z M 24.265625 11.328125 "/></g></g></g><g fill="#ffffff" fill-opacity="1"><g transform="translate(318.435861, 211.948194)"><g><path d="M 21.890625 0.890625 C 18.691406 0.890625 15.765625 0.515625 13.109375 -0.234375 C 10.453125 -0.984375 8.179688 -2.015625 6.296875 -3.328125 C 4.421875 -4.640625 3.03125 -6.144531 2.125 -7.84375 L 8.65625 -14.890625 L 9.546875 -14.890625 C 11.097656 -12.796875 12.929688 -11.222656 15.046875 -10.171875 C 17.171875 -9.128906 19.476562 -8.609375 21.96875 -8.609375 C 24.257812 -8.609375 25.984375 -9.019531 27.140625 -9.84375 C 28.304688 -10.664062 28.890625 -11.835938 28.890625 -13.359375 C 28.890625 -14.546875 28.472656 -15.539062 27.640625 -16.34375 C 26.804688 -17.15625 25.453125 -17.785156 23.578125 -18.234375 L 17.390625 -19.71875 C 12.753906 -20.820312 9.367188 -22.507812 7.234375 -24.78125 C 5.097656 -27.0625 4.03125 -29.957031 4.03125 -33.46875 C 4.03125 -36.382812 4.769531 -38.914062 6.25 -41.0625 C 7.738281 -43.207031 9.832031 -44.84375 12.53125 -45.96875 C 15.238281 -47.101562 18.382812 -47.671875 21.96875 -47.671875 C 26.1875 -47.671875 29.679688 -47.0625 32.453125 -45.84375 C 35.222656 -44.632812 37.382812 -43.015625 38.9375 -40.984375 L 32.65625 -34.1875 L 31.8125 -34.1875 C 30.507812 -35.65625 29.046875 -36.726562 27.421875 -37.40625 C 25.796875 -38.09375 23.976562 -38.4375 21.96875 -38.4375 C 17.332031 -38.4375 15.015625 -36.992188 15.015625 -34.109375 C 15.015625 -32.890625 15.445312 -31.894531 16.3125 -31.125 C 17.175781 -30.363281 18.695312 -29.742188 20.875 -29.265625 L 26.640625 -28 C 31.390625 -26.976562 34.859375 -25.34375 37.046875 -23.09375 C 39.242188 -20.84375 40.34375 -17.828125 40.34375 -14.046875 C 40.34375 -11.078125 39.601562 -8.457031 38.125 -6.1875 C 36.65625 -3.925781 34.535156 -2.179688 31.765625 -0.953125 C 28.992188 0.273438 25.703125 0.890625 21.890625 0.890625 Z M 21.890625 0.890625 "/></g></g></g></svg>