<svg xmlns="http://www.w3.org/2000/svg" xmlns:xlink="http://www.w3.org/1999/xlink" zoomAndPan="magnify" preserveAspectRatio="xMidYMid meet" version="1.0" viewBox="66.52 153.97 246.47 63.8"><defs><g/></defs><g fill="#000000" fill-opacity="1"><g transform="translate(58.351568, 216.863592)"><g><path d="M 48.78125 -39.234375 L 48.78125 -62.890625 L 61.171875 -62.890625 L 61.171875 0 L 48.78125 0 L 48.78125 -28.640625 L 20.609375 -28.640625 L 20.609375 0 L 8.171875 0 L 8.171875 -62.890625 L 20.609375 -62.890625 L 20.609375 -39.234375 Z M 48.78125 -39.234375 "/></g></g><g transform="translate(127.731698, 216.863592)"><g><path d="M 27.578125 0.90625 C 22.929688 0.90625 18.847656 -0.046875 15.328125 -1.953125 C 11.816406 -3.859375 9.09375 -6.65625 7.15625 -10.34375 C 5.226562 -14.03125 4.265625 -18.484375 4.265625 -23.703125 C 4.265625 -28.921875 5.226562 -33.378906 7.15625 -37.078125 C 9.09375 -40.773438 11.816406 -43.578125 15.328125 -45.484375 C 18.847656 -47.390625 22.929688 -48.34375 27.578125 -48.34375 C 32.222656 -48.34375 36.300781 -47.390625 39.8125 -45.484375 C 43.320312 -43.578125 46.050781 -40.773438 48 -37.078125 C 49.945312 -33.378906 50.921875 -28.921875 50.921875 -23.703125 C 50.921875 -18.484375 49.945312 -14.03125 48 -10.34375 C 46.050781 -6.65625 43.320312 -3.859375 39.8125 -1.953125 C 36.300781 -0.046875 32.222656 0.90625 27.578125 0.90625 Z M 27.578125 -9.203125 C 34.941406 -9.203125 38.625 -14.035156 38.625 -23.703125 C 38.625 -28.722656 37.675781 -32.398438 35.78125 -34.734375 C 33.894531 -37.066406 31.160156 -38.234375 27.578125 -38.234375 C 20.203125 -38.234375 16.515625 -33.390625 16.515625 -23.703125 C 16.515625 -14.035156 20.203125 -9.203125 27.578125 -9.203125 Z M 27.578125 -9.203125 "/></g></g><g transform="translate(182.874491, 216.863592)"><g><path d="M 6.84375 0 L 6.84375 -47.4375 L 18.28125 -47.4375 L 18.28125 -41.078125 L 19.1875 -40.90625 C 20.726562 -43.457031 22.539062 -45.332031 24.625 -46.53125 C 26.707031 -47.738281 29.367188 -48.34375 32.609375 -48.34375 C 36.191406 -48.34375 39.070312 -47.632812 41.25 -46.21875 C 43.425781 -44.800781 45.019531 -42.726562 46.03125 -40 L 46.921875 -40 C 48.390625 -42.84375 50.273438 -44.941406 52.578125 -46.296875 C 54.890625 -47.660156 57.765625 -48.34375 61.203125 -48.34375 C 71.046875 -48.34375 75.96875 -42.867188 75.96875 -31.921875 L 75.96875 0 L 64.046875 0 L 64.046875 -30.40625 C 64.046875 -33.1875 63.5 -35.191406 62.40625 -36.421875 C 61.320312 -37.660156 59.578125 -38.28125 57.171875 -38.28125 C 50.628906 -38.28125 47.359375 -33.90625 47.359375 -25.15625 L 47.359375 0 L 35.4375 0 L 35.4375 -30.40625 C 35.4375 -33.1875 34.882812 -35.191406 33.78125 -36.421875 C 32.675781 -37.660156 30.921875 -38.28125 28.515625 -38.28125 C 25.453125 -38.28125 23.054688 -37.253906 21.328125 -35.203125 C 19.609375 -33.148438 18.75 -29.890625 18.75 -25.421875 L 18.75 0 Z M 6.84375 0 "/></g></g><g transform="translate(264.943485, 216.863592)"><g><path d="M 46.890625 -21.03125 L 16.390625 -21.03125 C 16.734375 -16.90625 17.90625 -13.898438 19.90625 -12.015625 C 21.914062 -10.140625 24.65625 -9.203125 28.125 -9.203125 C 30.851562 -9.203125 33.0625 -9.710938 34.75 -10.734375 C 36.445312 -11.753906 37.8125 -13.296875 38.84375 -15.359375 L 39.75 -15.359375 L 47.65625 -10.28125 C 46.113281 -6.957031 43.773438 -4.257812 40.640625 -2.1875 C 37.515625 -0.125 33.34375 0.90625 28.125 0.90625 C 23.226562 0.90625 18.992188 -0.0234375 15.421875 -1.890625 C 11.847656 -3.753906 9.09375 -6.53125 7.15625 -10.21875 C 5.226562 -13.90625 4.265625 -18.398438 4.265625 -23.703125 C 4.265625 -29.085938 5.28125 -33.628906 7.3125 -37.328125 C 9.34375 -41.035156 12.09375 -43.796875 15.5625 -45.609375 C 19.039062 -47.429688 22.941406 -48.34375 27.265625 -48.34375 C 33.984375 -48.34375 39.125 -46.566406 42.6875 -43.015625 C 46.257812 -39.460938 48.046875 -34.242188 48.046875 -27.359375 C 48.046875 -24.859375 47.960938 -22.921875 47.796875 -21.546875 Z M 36.640625 -28.734375 C 36.523438 -32.347656 35.6875 -34.976562 34.125 -36.625 C 32.5625 -38.269531 30.273438 -39.09375 27.265625 -39.09375 C 21.242188 -39.09375 17.703125 -35.640625 16.640625 -28.734375 Z M 36.640625 -28.734375 "/></g></g></g></svg>