<svg xmlns="http://www.w3.org/2000/svg" xmlns:xlink="http://www.w3.org/1999/xlink" zoomAndPan="magnify" preserveAspectRatio="xMidYMid meet" version="1.0" viewBox="96.12 149.75 187.97 68.02"><defs><g/></defs><g fill="#000000" fill-opacity="1"><g transform="translate(87.94458, 216.863592)"><g><path d="M 48.046875 -62.890625 L 48.046875 -52.484375 L 20.609375 -52.484375 L 20.609375 -35.828125 L 45.515625 -35.828125 L 45.515625 -25.546875 L 20.609375 -25.546875 L 20.609375 0 L 8.171875 0 L 8.171875 -62.890625 Z M 48.046875 -62.890625 "/></g></g><g transform="translate(138.786064, 216.863592)"><g><path d="M 12.78125 -53.125 C 10.625 -53.125 8.867188 -53.773438 7.515625 -55.078125 C 6.171875 -56.378906 5.5 -58.066406 5.5 -60.140625 C 5.5 -62.171875 6.171875 -63.835938 7.515625 -65.140625 C 8.867188 -66.453125 10.625 -67.109375 12.78125 -67.109375 C 14.207031 -67.109375 15.476562 -66.804688 16.59375 -66.203125 C 17.71875 -65.597656 18.585938 -64.769531 19.203125 -63.71875 C 19.816406 -62.675781 20.125 -61.484375 20.125 -60.140625 C 20.125 -58.785156 19.816406 -57.578125 19.203125 -56.515625 C 18.585938 -55.453125 17.71875 -54.617188 16.59375 -54.015625 C 15.476562 -53.421875 14.207031 -53.125 12.78125 -53.125 Z M 6.84375 0 L 6.84375 -47.4375 L 18.75 -47.4375 L 18.75 0 Z M 6.84375 0 "/></g></g><g transform="translate(164.335845, 216.863592)"><g><path d="M 19.703125 0.90625 C 15.429688 0.90625 12.164062 -0.242188 9.90625 -2.546875 C 7.65625 -4.859375 6.53125 -8.367188 6.53125 -13.078125 L 6.53125 -66.5 L 18.453125 -66.5 L 18.453125 -13.546875 C 18.453125 -10.648438 19.65625 -9.203125 22.0625 -9.203125 C 22.75 -9.203125 23.484375 -9.316406 24.265625 -9.546875 L 24.859375 -9.375 L 25.9375 -0.21875 C 25.28125 0.125 24.40625 0.394531 23.3125 0.59375 C 22.21875 0.800781 21.015625 0.90625 19.703125 0.90625 Z M 19.703125 0.90625 "/></g></g><g transform="translate(191.60615, 216.863592)"><g><path d="M 46.890625 -21.03125 L 16.390625 -21.03125 C 16.734375 -16.90625 17.90625 -13.898438 19.90625 -12.015625 C 21.914062 -10.140625 24.65625 -9.203125 28.125 -9.203125 C 30.851562 -9.203125 33.0625 -9.710938 34.75 -10.734375 C 36.445312 -11.753906 37.8125 -13.296875 38.84375 -15.359375 L 39.75 -15.359375 L 47.65625 -10.28125 C 46.113281 -6.957031 43.773438 -4.257812 40.640625 -2.1875 C 37.515625 -0.125 33.34375 0.90625 28.125 0.90625 C 23.226562 0.90625 18.992188 -0.0234375 15.421875 -1.890625 C 11.847656 -3.753906 9.09375 -6.53125 7.15625 -10.21875 C 5.226562 -13.90625 4.265625 -18.398438 4.265625 -23.703125 C 4.265625 -29.085938 5.28125 -33.628906 7.3125 -37.328125 C 9.34375 -41.035156 12.09375 -43.796875 15.5625 -45.609375 C 19.039062 -47.429688 22.941406 -48.34375 27.265625 -48.34375 C 33.984375 -48.34375 39.125 -46.566406 42.6875 -43.015625 C 46.257812 -39.460938 48.046875 -34.242188 48.046875 -27.359375 C 48.046875 -24.859375 47.960938 -22.921875 47.796875 -21.546875 Z M 36.640625 -28.734375 C 36.523438 -32.347656 35.6875 -34.976562 34.125 -36.625 C 32.5625 -38.269531 30.273438 -39.09375 27.265625 -39.09375 C 21.242188 -39.09375 17.703125 -35.640625 16.640625 -28.734375 Z M 36.640625 -28.734375 "/></g></g><g transform="translate(243.178856, 216.863592)"><g><path d="M 22.203125 0.90625 C 18.953125 0.90625 15.976562 0.523438 13.28125 -0.234375 C 10.59375 -0.992188 8.296875 -2.039062 6.390625 -3.375 C 4.484375 -4.707031 3.070312 -6.234375 2.15625 -7.953125 L 8.78125 -15.09375 L 9.671875 -15.09375 C 11.253906 -12.976562 13.117188 -11.390625 15.265625 -10.328125 C 17.421875 -9.265625 19.757812 -8.734375 22.28125 -8.734375 C 24.601562 -8.734375 26.351562 -9.148438 27.53125 -9.984375 C 28.707031 -10.816406 29.296875 -12.003906 29.296875 -13.546875 C 29.296875 -14.753906 28.867188 -15.765625 28.015625 -16.578125 C 27.171875 -17.398438 25.804688 -18.039062 23.921875 -18.5 L 17.640625 -20 C 12.929688 -21.113281 9.492188 -22.828125 7.328125 -25.140625 C 5.171875 -27.453125 4.09375 -30.382812 4.09375 -33.9375 C 4.09375 -36.894531 4.84375 -39.460938 6.34375 -41.640625 C 7.851562 -43.816406 9.972656 -45.476562 12.703125 -46.625 C 15.441406 -47.769531 18.632812 -48.34375 22.28125 -48.34375 C 26.550781 -48.34375 30.09375 -47.726562 32.90625 -46.5 C 35.71875 -45.269531 37.910156 -43.617188 39.484375 -41.546875 L 33.125 -34.671875 L 32.265625 -34.671875 C 30.941406 -36.160156 29.453125 -37.25 27.796875 -37.9375 C 26.148438 -38.625 24.3125 -38.96875 22.28125 -38.96875 C 17.582031 -38.96875 15.234375 -37.503906 15.234375 -34.578125 C 15.234375 -33.347656 15.664062 -32.34375 16.53125 -31.5625 C 17.40625 -30.789062 18.945312 -30.164062 21.15625 -29.6875 L 27.015625 -28.390625 C 31.828125 -27.359375 35.34375 -25.703125 37.5625 -23.421875 C 39.789062 -21.140625 40.90625 -18.078125 40.90625 -14.234375 C 40.90625 -11.222656 40.160156 -8.570312 38.671875 -6.28125 C 37.179688 -3.988281 35.03125 -2.21875 32.21875 -0.96875 C 29.40625 0.28125 26.066406 0.90625 22.203125 0.90625 Z M 22.203125 0.90625 "/></g></g></g></svg>