<svg xmlns="http://www.w3.org/2000/svg" xmlns:xlink="http://www.w3.org/1999/xlink" zoomAndPan="magnify" preserveAspectRatio="xMidYMid meet" version="1.0" viewBox="94.28 150.36 194.34 67.41"><defs><g/></defs><g fill="#000000" fill-opacity="1"><g transform="translate(86.109355, 216.863652)"><g><path d="M 20.609375 -62.890625 L 20.609375 -10.40625 L 48.859375 -10.40625 L 48.859375 0 L 8.171875 0 L 8.171875 -62.890625 Z M 20.609375 -62.890625 "/></g></g><g transform="translate(137.036865, 216.863652)"><g><path d="M 27.578125 0.90625 C 22.929688 0.90625 18.847656 -0.046875 15.328125 -1.953125 C 11.816406 -3.859375 9.09375 -6.65625 7.15625 -10.34375 C 5.226562 -14.03125 4.265625 -18.484375 4.265625 -23.703125 C 4.265625 -28.921875 5.226562 -33.378906 7.15625 -37.078125 C 9.09375 -40.773438 11.816406 -43.578125 15.328125 -45.484375 C 18.847656 -47.390625 22.929688 -48.34375 27.578125 -48.34375 C 32.222656 -48.34375 36.300781 -47.390625 39.8125 -45.484375 C 43.320312 -43.578125 46.050781 -40.773438 48 -37.078125 C 49.945312 -33.378906 50.921875 -28.921875 50.921875 -23.703125 C 50.921875 -18.484375 49.945312 -14.03125 48 -10.34375 C 46.050781 -6.65625 43.320312 -3.859375 39.8125 -1.953125 C 36.300781 -0.046875 32.222656 0.90625 27.578125 0.90625 Z M 27.578125 -9.203125 C 34.941406 -9.203125 38.625 -14.035156 38.625 -23.703125 C 38.625 -28.722656 37.675781 -32.398438 35.78125 -34.734375 C 33.894531 -37.066406 31.160156 -38.234375 27.578125 -38.234375 C 20.203125 -38.234375 16.515625 -33.390625 16.515625 -23.703125 C 16.515625 -14.035156 20.203125 -9.203125 27.578125 -9.203125 Z M 27.578125 -9.203125 "/></g></g><g transform="translate(192.179658, 216.863652)"><g><path d="M 27.65625 0.90625 C 23.070312 0.90625 19.015625 -0.046875 15.484375 -1.953125 C 11.953125 -3.859375 9.195312 -6.660156 7.21875 -10.359375 C 5.25 -14.066406 4.265625 -18.515625 4.265625 -23.703125 C 4.265625 -28.921875 5.25 -33.378906 7.21875 -37.078125 C 9.195312 -40.773438 11.9375 -43.578125 15.4375 -45.484375 C 18.9375 -47.390625 22.9375 -48.34375 27.4375 -48.34375 C 37.445312 -48.34375 43.859375 -44.71875 46.671875 -37.46875 L 38.5 -31.609375 L 37.59375 -31.609375 C 36.613281 -33.847656 35.34375 -35.507812 33.78125 -36.59375 C 32.21875 -37.6875 30.101562 -38.234375 27.4375 -38.234375 C 24 -38.234375 21.316406 -37.039062 19.390625 -34.65625 C 17.472656 -32.28125 16.515625 -28.628906 16.515625 -23.703125 C 16.515625 -18.828125 17.488281 -15.191406 19.4375 -12.796875 C 21.394531 -10.398438 24.132812 -9.203125 27.65625 -9.203125 C 30.238281 -9.203125 32.425781 -9.894531 34.21875 -11.28125 C 36.007812 -12.675781 37.289062 -14.679688 38.0625 -17.296875 L 38.96875 -17.375 L 47.4375 -12.734375 C 46.238281 -8.710938 44.007812 -5.429688 40.75 -2.890625 C 37.5 -0.359375 33.132812 0.90625 27.65625 0.90625 Z M 27.65625 0.90625 "/></g></g><g transform="translate(241.085552, 216.863652)"><g><path d="M 6.84375 0 L 6.84375 -66.5 L 18.75 -66.5 L 18.75 -29.59375 L 19.921875 -29.59375 L 33.640625 -47.4375 L 45.71875 -47.4375 L 45.71875 -46.453125 L 29.59375 -25.640625 L 47.53125 -1.078125 L 47.53125 0 L 34.96875 0 L 19.921875 -20 L 18.75 -20 L 18.75 0 Z M 6.84375 0 "/></g></g></g></svg>